<?xml version="1.0" standalone="no"?>
<!DOCTYPE svg PUBLIC "-//W3C//DTD SVG 20010904//EN"
 "http://www.w3.org/TR/2001/REC-SVG-20010904/DTD/svg10.dtd">
<svg version="1.0" xmlns="http://www.w3.org/2000/svg"
 width="225.000000pt" height="225.000000pt" viewBox="0 0 225.000000 225.000000"
 preserveAspectRatio="xMidYMid meet">
<metadata>
Created by potrace 1.14, written by Peter Selinger 2001-2017
</metadata>
<g transform="translate(0.000000,225.000000) scale(0.100000,-0.100000)"
fill="#000000" stroke="none">
<path d="M993 2240 c-387 -49 -713 -280 -883 -625 -95 -194 -105 -240 -105
-495 0 -195 2 -222 23 -295 52 -180 158 -360 287 -490 143 -143 328 -250 522
-302 89 -24 115 -27 283 -27 168 0 194 3 282 26 208 56 376 153 524 302 163
164 263 346 309 567 20 94 20 354 0 448 -92 437 -428 776 -866 872 -103 22
-277 31 -376 19z m357 -54 c402 -86 720 -395 827 -804 21 -82 25 -121 26 -247
1 -158 -7 -214 -49 -349 -83 -261 -274 -488 -524 -624 -305 -164 -685 -164
-1005 1 -518 268 -725 873 -485 1422 30 69 117 198 185 272 157 173 423 309
670 342 87 12 269 5 355 -13z"/>
<path d="M1414 1910 c-72 -15 -165 -69 -230 -135 l-61 -62 -68 65 c-109 104
-226 144 -354 122 -223 -38 -426 -249 -462 -480 -15 -98 -6 -274 20 -373 85
-325 355 -613 771 -822 l93 -47 111 52 c315 146 585 403 702 666 70 157 92
356 58 522 -18 92 -87 238 -143 305 -84 100 -189 166 -296 186 -66 12 -82 12
-141 1z m-525 -115 c41 -22 94 -62 136 -105 l69 -70 -52 0 -52 0 0 -90 0 -90
-120 0 -120 0 0 -105 0 -105 115 0 c125 0 119 3 128 -61 l5 -36 -85 -32 c-46
-18 -110 -36 -141 -41 -79 -12 -129 -35 -147 -69 -14 -28 -65 -228 -65 -257 0
-12 37 -14 215 -14 l215 0 0 -25 0 -25 120 0 120 0 0 25 0 25 215 0 c171 0
217 3 221 13 3 8 -11 49 -30 93 -19 43 -42 106 -51 139 -16 57 -20 62 -60 78
-24 10 -65 20 -92 22 -26 2 -82 17 -123 32 l-75 29 0 49 0 50 123 3 122 3 0
104 0 105 -125 0 -125 0 0 89 0 90 -37 3 -37 3 68 67 c44 43 93 80 135 100 59
29 75 33 151 33 78 0 90 -3 148 -34 127 -69 247 -242 273 -395 25 -150 -5
-336 -80 -484 -81 -160 -224 -324 -395 -451 -86 -64 -286 -182 -321 -189 -24
-4 -129 45 -223 105 -339 216 -563 526 -601 831 -24 194 34 368 167 499 138
135 268 163 411 88z m180 -686 l31 -11 0 -105 c0 -97 -1 -104 -17 -97 -36 18
-156 8 -248 -19 -49 -15 -101 -27 -116 -27 l-26 0 18 78 c10 42 21 87 24 100
5 19 12 22 53 22 30 1 78 13 132 35 95 38 104 40 149 24z m250 -31 c47 -15
102 -28 122 -28 l37 0 15 -67 c8 -38 18 -83 22 -102 l7 -34 -53 5 c-30 3 -45
2 -34 -2 87 -33 156 -64 161 -72 9 -13 -86 0 -201 29 -92 24 -163 29 -280 23
-16 -1 -52 1 -80 5 -40 6 -79 0 -194 -29 -141 -35 -205 -44 -214 -28 -14 22
240 101 355 109 52 4 73 2 92 -10 23 -15 28 -15 70 4 45 20 58 20 161 4 30 -5
30 -5 5 7 -14 6 -62 12 -107 12 l-83 1 0 97 c0 82 3 99 18 107 23 13 79 4 181
-31z m-609 -70 c-1 -53 -40 -173 -62 -189 -12 -10 -25 -16 -27 -14 -2 3 4 52
14 109 18 105 21 111 63 115 6 0 12 -9 12 -21z m869 -99 c18 -61 30 -113 28
-116 -3 -2 -18 9 -34 25 -31 31 -49 79 -59 156 -6 41 -5 46 13 46 17 0 25 -18
52 -111z"/>
<path d="M800 576 c0 -24 2 -25 75 -23 41 1 76 -2 78 -7 2 -5 12 -4 23 2 12 6
30 8 42 5 17 -4 22 -1 22 15 0 18 -6 19 -95 18 -52 0 -95 2 -95 7 0 4 -11 7
-25 7 -20 0 -25 -5 -25 -24z"/>
<path d="M1104 585 c-10 -25 4 -33 58 -33 37 -1 55 4 64 16 12 16 13 15 14 -3
1 -11 4 -14 7 -7 2 6 9 12 14 12 6 0 7 -4 4 -10 -3 -5 3 -10 14 -10 23 0 26 7
12 29 -5 8 -16 11 -25 8 -9 -4 -16 -2 -16 3 0 6 -9 6 -23 1 -14 -6 -30 -6 -38
0 -20 12 -29 11 -29 -5 0 -7 -9 -16 -20 -19 -13 -3 -20 0 -20 8 0 8 8 16 18
18 12 4 11 5 -6 6 -12 0 -25 -6 -28 -14z"/>
<path d="M1306 591 c-10 -16 5 -41 25 -41 14 0 19 7 18 28 0 15 -3 21 -6 14
-4 -9 -8 -10 -18 -2 -8 7 -15 7 -19 1z"/>
<path d="M1050 568 c0 -12 1 -19 3 -17 1 2 9 12 16 22 12 14 11 17 -3 17 -10
0 -16 -8 -16 -22z"/>
<path d="M1360 569 c0 -14 7 -19 29 -19 16 0 32 6 34 13 4 10 6 10 6 0 2 -21
21 -15 21 6 0 16 -7 19 -45 19 -38 0 -45 -3 -45 -19z"/>
<path d="M890 485 c0 -21 5 -25 30 -25 17 0 30 5 30 13 0 8 2 9 8 1 11 -17 67
-12 67 6 0 10 -8 14 -22 13 -13 -2 -23 1 -23 6 0 17 -40 7 -46 -11 -7 -24 -24
-23 -24 2 0 11 -4 20 -10 20 -5 0 -10 -11 -10 -25z"/>
<path d="M1060 499 c0 -4 -3 -14 -6 -23 -5 -13 3 -16 49 -16 35 0 57 5 60 13
4 10 6 10 6 0 1 -8 16 -13 41 -13 34 0 40 3 40 21 0 16 -5 20 -20 16 -11 -3
-20 -1 -20 4 0 5 -5 9 -11 9 -5 0 -8 -4 -5 -9 3 -4 -8 -8 -24 -7 -17 1 -30 4
-30 8 0 5 -18 7 -40 6 -22 -1 -40 -5 -40 -9z"/>
<path d="M1267 503 c-4 -3 -7 -15 -7 -25 0 -23 45 -25 54 -2 9 24 8 27 -11 20
-9 -4 -19 -2 -23 4 -3 6 -9 7 -13 3z"/>
<path d="M1332 468 c1 -24 3 -27 14 -16 20 20 21 40 2 43 -13 2 -16 -4 -16
-27z"/>
</g>
</svg>
